<?xml version="1.0" standalone="no"?>
<!DOCTYPE svg PUBLIC "-//W3C//DTD SVG 20010904//EN"
 "http://www.w3.org/TR/2001/REC-SVG-20010904/DTD/svg10.dtd">
<svg version="1.0" xmlns="http://www.w3.org/2000/svg"
 width="500.000000pt" height="500.000000pt" viewBox="0 0 500.000000 500.000000"
 preserveAspectRatio="xMidYMid meet">

<g transform="translate(0.000000,500.000000) scale(0.100000,-0.100000)"
fill="#000000" stroke="none">
<path d="M1415 4016 c-124 -39 -218 -134 -250 -251 -5 -16 -7 -556 -6 -1199 3
-1070 5 -1174 20 -1221 51 -154 174 -267 320 -295 34 -6 418 -10 1050 -10
1066 0 1063 0 1159 50 56 29 138 120 168 184 15 32 29 88 34 138 13 114 13
1697 0 1813 -13 109 -32 178 -76 270 -43 93 -95 160 -211 277 -112 114 -232
199 -327 234 l-67 24 -887 -1 c-686 0 -896 -3 -927 -13z m1692 -154 c17 -8 39
-24 47 -37 35 -54 7 -252 -59 -411 -40 -97 -40 -134 2 -161 22 -15 37 -15 138
-4 209 23 421 11 487 -27 16 -9 32 -30 38 -47 6 -19 9 -349 7 -910 -2 -871 -3
-880 -24 -926 -25 -55 -98 -121 -151 -137 -29 -9 -307 -12 -1063 -12 -1016 0
-1023 0 -1066 21 -23 11 -60 41 -82 65 -76 86 -71 4 -71 1284 l0 1146 26 52
c32 65 78 101 141 112 26 4 397 7 823 6 614 -1 782 -4 807 -14z m307 -104
c126 -111 177 -162 226 -229 53 -71 75 -118 63 -130 -5 -5 -60 -3 -123 3 -81
8 -146 8 -220 1 -58 -5 -107 -8 -109 -6 -3 2 3 27 12 56 27 87 47 208 47 290
0 98 8 99 104 15z"/>
<path d="M2224 3162 c-127 -125 -241 -236 -253 -246 l-21 -19 -79 76 c-67 66
-84 77 -113 77 -42 0 -78 -34 -78 -75 0 -22 22 -51 112 -142 105 -106 114
-113 152 -113 46 0 34 -10 394 342 195 191 232 232 232 256 0 42 -33 72 -78
72 -35 -1 -51 -15 -268 -228z"/>
<path d="M2383 2547 c-290 -289 -333 -336 -333 -362 0 -48 25 -75 68 -75 35 1
55 18 375 333 285 280 337 336 337 360 0 39 -41 77 -82 77 -30 0 -64 -31 -365
-333z"/>
<path d="M3253 2598 c-20 -23 -64 -83 -353 -492 -80 -113 -150 -206 -156 -206
-6 0 -55 51 -108 114 -101 119 -110 126 -155 126 -57 0 -91 -52 -71 -106 6
-15 62 -84 124 -153 186 -207 180 -201 221 -201 45 0 65 21 182 190 48 69 133
188 188 265 262 363 265 367 265 407 0 51 -28 78 -78 78 -27 0 -45 -7 -59 -22z"/>
<path d="M1718 2223 c-71 -70 -131 -138 -135 -151 -13 -53 40 -103 90 -86 14
5 82 64 151 131 115 111 126 125 126 157 0 45 -29 76 -72 76 -27 0 -50 -18
-160 -127z"/>
</g>
</svg>
